<?xml version="1.0" encoding="utf-8"?>
<svg xmlns="http://www.w3.org/2000/svg" viewBox="0 0 50 50" width="100" height="100">
  <path d="M7 2L7 48L43 48L43 14.59375L30.40625 2 Z M 30 4.40625L40.59375 15L30 15 Z M 14 10L27 10L27 12L14 12 Z M 14 14L27 14L27 16L14 16 Z M 14 18L37 18L37 20L14 20 Z M 14 22L37 22L37 24L14 24 Z M 14 26L37 26L37 28L14 28 Z M 20.15625 30.5625C21.875 30.5625 22.96875 31.746094 22.96875 33.59375C22.96875 35.632813 22.078125 37.441406 21.03125 38.84375C23.328125 38.660156 24.320313 36.9375 25 35.78125C25.414063 35.074219 25.78125 34.46875 26.53125 34.46875C27.527344 34.46875 27.855469 35.511719 28.21875 36.59375C28.230469 36.621094 28.238281 36.65625 28.25 36.6875C28.425781 36.550781 28.625 36.375 28.78125 36.25C29.769531 35.457031 31.003906 34.46875 32.5 34.46875C33.054688 34.46875 33.5 34.914063 33.5 35.46875C33.5 36.023438 33.054688 36.46875 32.5 36.46875C31.707031 36.46875 30.816406 37.183594 30.03125 37.8125C29.25 38.4375 28.585938 39 27.8125 39C26.976563 39 26.675781 38.257813 26.375 37.375C25.496094 38.78125 23.855469 40.875 20.59375 40.875C20.167969 40.875 19.800781 40.792969 19.4375 40.65625C18.699219 41.371094 18.097656 41.792969 18.03125 41.84375C17.855469 41.972656 17.671875 42.03125 17.46875 42.03125C17.160156 42.03125 16.851563 41.894531 16.65625 41.625C16.332031 41.179688 16.429688 40.542969 16.875 40.21875C16.886719 40.210938 17.25 39.925781 17.78125 39.4375C16.910156 38.367188 16.46875 36.878906 16.46875 35.65625C16.46875 32.890625 18.160156 30.5625 20.15625 30.5625 Z M 20.15625 32.5625C19.496094 32.5625 18.46875 33.886719 18.46875 35.65625C18.46875 36.367188 18.734375 37.265625 19.1875 37.9375C20.121094 36.765625 20.96875 35.25 20.96875 33.59375C20.96875 32.554688 20.445313 32.5625 20.15625 32.5625Z" fill="#808080" />
</svg>