<?xml version="1.0" encoding="utf-8"?>
<svg xmlns="http://www.w3.org/2000/svg" viewBox="0 0 50 50" width="100" height="100">
  <path d="M43,9H7c-2.757,0-5,2.243-5,5v22c0,2.757,2.243,5,5,5h36c2.757,0,5-2.243,5-5V14C48,11.243,45.757,9,43,9z M8.553,18.105l6-3c0.281-0.141,0.613-0.141,0.895,0l6,3c0.494,0.247,0.694,0.848,0.447,1.342C21.719,19.798,21.366,20,20.999,20c-0.15,0-0.303-0.034-0.446-0.105L15,17.118l-5.553,2.776c-0.495,0.245-1.094,0.048-1.342-0.447C7.858,18.953,8.059,18.353,8.553,18.105z M21,24c-1.86,0-3.428,1.276-3.874,3h-4.253C12.428,25.276,10.86,24,9,24c0-1.657,1.343-3,3-3h6C19.657,21,21,22.343,21,24z M21,30v2c0,0.552-0.448,1-1,1c0,0.552-0.448,1-1,1h-1c-0.552,0-1-0.448-1-1h-4c0,0.552-0.448,1-1,1h-1c-0.552,0-1-0.448-1-1c-0.552,0-1-0.448-1-1v-2c-1.105,0-2-0.896-2-2c0-1.105,0.895-2,2-2s2,0.895,2,2c0,0.552,0.448,1,1,1h6c0.552,0,1-0.448,1-1c0-1.105,0.895-2,2-2s2,0.895,2,2C23,29.104,22.105,30,21,30z M38,32H27c-0.553,0-1-0.447-1-1s0.447-1,1-1h11c0.553,0,1,0.447,1,1S38.553,32,38,32z M41,28H27c-0.553,0-1-0.447-1-1s0.447-1,1-1h14c0.553,0,1,0.447,1,1S41.553,28,41,28z M26,23c0-0.553,0.447-1,1-1h11c0.553,0,1,0.447,1,1s-0.447,1-1,1H27C26.447,24,26,23.553,26,23z M41,20H27c-0.553,0-1-0.447-1-1s0.447-1,1-1h14c0.553,0,1,0.447,1,1S41.553,20,41,20z" fill="#808080" />
</svg>